<?xml version="1.0" encoding="UTF-8"?>
<svg id="Capa_1" data-name="Capa 1" xmlns="http://www.w3.org/2000/svg" viewBox="0 0 393.34 775.87">
  <path d="M151.35,608.84c-5.1-10.62,5.38-12.68,11.4-4.84,12.65,12.49,19.14,28.41,18.29,45.68.48,24.46,1.92,50.18,2.28,74.76-.16,14.37-15.12,11.39-13.72-4.92-2.09-27.87-.92-54.08-2.62-81.38-1.63-11.34-9.33-20.11-15.64-29.29Z"/>
  <path d="M332.63,420.71c-21.2,100.73-87.01,66.66-64.02,103.27,13.86,26.01,21.91,55.21,37.56,80.12,33.43,45.97,62.86,97.02,82.82,150.73,1.46,3.87,3.14,7.99,3.98,11.78,1.92,7.44-4.37,12.95-9.87,6.2-4.63-6.08-6.93-14.08-10.03-21-7.31-18.45-15.66-38.23-26.72-55.47-14.39-26.35-29.84-57.44-50.67-80.39-2.75-2.57-7.65-4.54-12.02-5.32-36.57-4.74-58-34.69-79.11-61.34-8.54-9.61-11.83-9.66-24.13-11.81-5.06-1.02-11.11-3.79-12.16-9.29-.74-3.35,1.1-7.49,4.77-7.55,10.62.98,23.23,2.6,32.5,8.26,12.62,11.47,22.22,26.11,33.36,39.08,7.58,12.11,20.03,19.72,33.51,23.7,12.39,3.98,6.67-6.81,4.1-12.99-3.51-8.84-7.77-18.27-11.47-26.91-7.52-15.66-12.4-33.1-24.89-45.76-15.64-19.23,77.5-6.27,79.73-107.81,1.64-37.17-25.25,16.43-66.79-34.03-6.98-6.04-4.54-18.65,5.2-11.47,13.4,16.67,38.81,30.78,54.45,9.12,4.74-39.4-35.69-86.99-60.06-115.48-9.26-13-5.66-21.1-24.28-25.22-5.81-1.42-13.72-1.54-18.72-3.29-3.6-1.14-5.58-4.43-6.92-7.84-2.6-6.62-6.98-17.53-8.58-24.22-.84-2.97-.81-6.92,2.78-7.73,12.84-2.34,11.61,23.19,21.03,27.65,30.14,8.49,30.2,7.75,46.06,37.38,47.63,45.73,75.88,111.29,68.56,177.64Z"/>
  <path d="M197.05,222.1c6.07,7.14,10.07,32.35-6.24,21.56-4.32-3.88-4.73-12.49-10.6-15.4-1.25-.56-2.61-.43-2.61,1.16.07,2.77,3.02,6.35,4.19,9.11,5.74,24.63-20.28,2.02-22.9-7.84-7.71-28.86,26.71-27.54,38.15-8.58Z"/>
  <path d="M65.87,347.79c6.59,4.08,20.25,2.48,23.91,7.62,2.23,3.35-.08,7.04-4.5,7.89-12.44,1.27-27.2-4.45-35.2-14.1-9.89-11.5-9.94-43.68,8.75-46.52,6.33-.99,25.32,4,22.69,12.48-3.17,5.31-13.02.88-18.29,5.09-8.34,6.61-7.41,23.08,2.64,27.54Z"/>
  <path d="M169.55,16.22c17.98,10.51,36.04,21.41,52.37,34.1,7.23,7.85.19,13.73-8.27,9.2-6.8-3.46-13.53-8.82-19.26-12.48-26.14-16.54-54.49-35.32-86.95-32.07-17.38,2.03-29.31,20.25-40.04,32.74-2.69,3.29-6.18,6.89-9.86,6.55-8.56-.86-9.3-11.47-3.97-16.78C65.31,22.67,77.92,6.93,96.47.8c25.1-3.21,50.85,3.53,73.07,15.43Z"/>
  <path d="M172.66,140.91c-4.43,5.98-12.53-.38-15.18-5.6-10-16.93-24.22-31.59-42.17-39.98-10.77-6.52-22.86-10.79-35.04-13.74-4.24-1.09-9.05-1.81-12.13-4.98-3.98-3.99-4.45-12.63,3.08-11.89,34.92,5.65,72.1,25.56,92.65,55.38,2.65,4.79,11.3,15.87,8.79,20.82Z"/>
  <path d="M91.76,196.02c-4.85,6.47-12.97-.97-14.71-6.84-14.34-33.12-41.19-58.37-65.16-84.8-3.7-4-11.32-10.45-6.72-15.4,2.67-2.05,7.33.75,9.77,3.03,21.48,23.6,78.11,72.15,76.81,104Z"/>
  <path d="M41.08,212.39c8.67,20.01-12.33,10.95-17.59.25-4.79-7.5-4.43-18.39-7.37-28.11-3.06-10.22-7.45-20.31-13-29.15-2.72-3.79-5.62-12.38.56-13.49,7.81.24,16.46,17.78,20.56,25.43,8.12,13.52,6.8,33.38,16.84,45.07Z"/>
  <path d="M159.55,85.64c-14.51-18.82-28.15-34.07-54.19-30.79-8.02.87-14.66,2.89-17.29-4.77-1.03-4.01,3.01-6.54,6.68-7.27,19-4.03,41.91,1.41,56.37,14.72,5.12,4.74,18.83,20.58,16.21,27.21-1.26,2.78-4.82,3.01-7.78.9Z"/>
  <path d="M90.08,108.43c8.69,4.62,54.73,74.24,22.35,61.43-24.11-65.73-73.55-69.18-73.79-84.72,4.13-13.88,44.78,18.17,51.44,23.29Z"/>
</svg>